<?xml version="1.0" encoding="utf-8"?>
<!-- Generator: Adobe Illustrator 24.3.0, SVG Export Plug-In . SVG Version: 6.00 Build 0)  -->
<svg version="1.1" id="Layer_1" xmlns="http://www.w3.org/2000/svg" xmlns:xlink="http://www.w3.org/1999/xlink" x="0px" y="0px"
	 viewBox="0 0 79.7 65.8" style="enable-background:new 0 0 79.7 65.8;" xml:space="preserve">
<style type="text/css">
	.st0{fill:#FFFFFF;}
	.st1{fill:#1F2E24;}
</style>
<g id="Group_365" transform="translate(-986.725 -5028)">
	<path id="Rectangle_1599" class="st0" d="M1012.6,5037.9h28c5,0,9,4,9,9v28c0,5-4,9-9,9h-28c-5,0-9-4-9-9v-28
		C1003.6,5041.9,1007.6,5037.9,1012.6,5037.9z"/>
	<path id="Icon_awesome-dribbble" class="st1" d="M1026.1,5044.5c-9.6,0-17.4,7.8-17.4,17.4c0,9.6,7.8,17.4,17.4,17.4
		s17.4-7.8,17.4-17.4c0,0,0,0,0,0C1043.6,5052.3,1035.7,5044.5,1026.1,5044.5z M1037.7,5052.5c2.1,2.6,3.3,5.9,3.4,9.3
		c-3.4-0.7-6.9-0.8-10.4-0.5c-0.4-1-0.8-1.9-1.3-2.9C1032.6,5057.2,1035.4,5055.2,1037.7,5052.5z M1036,5050.8
		c-0.3,0.4-2.5,3.4-7.8,5.4c-1.7-3-3.5-5.9-5.6-8.7C1027.4,5046.3,1032.4,5047.6,1036,5050.8z M1019.8,5048.5c2,2.8,3.8,5.6,5.5,8.6
		c-4.5,1.2-9.1,1.8-13.8,1.8C1012.5,5054.3,1015.6,5050.5,1019.8,5048.5z M1011.2,5061.9c0-0.2,0-0.3,0-0.5c5.2,0,10.3-0.7,15.3-2.1
		c0.4,0.8,0.8,1.7,1.2,2.5c-5.3,1.7-9.8,5.2-12.7,10C1012.6,5069.2,1011.2,5065.6,1011.2,5061.9z M1017,5073.7
		c1.6-3.2,5.8-7.3,11.8-9.3c1.4,3.7,2.5,7.4,3.2,11.3C1027,5077.8,1021.2,5077,1017,5073.7L1017,5073.7z M1034.4,5074.3
		c-0.7-3.6-1.6-7.2-2.9-10.6c3.1-0.5,6.3-0.2,9.3,0.6C1040.2,5068.4,1037.9,5072,1034.4,5074.3L1034.4,5074.3z"/>
</g>
<g>
</g>
<g>
</g>
<g>
</g>
<g>
</g>
<g>
</g>
<g>
</g>
<g>
</g>
<g>
</g>
<g>
</g>
<g>
</g>
<g>
</g>
<g>
</g>
<g>
</g>
<g>
</g>
<g>
</g>
</svg>
