<?xml version="1.0" encoding="utf-8"?>
<!-- Generator: Adobe Illustrator 24.3.0, SVG Export Plug-In . SVG Version: 6.00 Build 0)  -->
<svg version="1.1" id="Layer_1" xmlns="http://www.w3.org/2000/svg" xmlns:xlink="http://www.w3.org/1999/xlink" x="0px" y="0px"
	 viewBox="0 0 58.3 86.4" style="enable-background:new 0 0 58.3 86.4;" xml:space="preserve">
<style type="text/css">
	.st0{fill:none;stroke:#25271C;stroke-width:5;stroke-miterlimit:10;}
	.st1{fill:#2B4134;}
	.st2{fill:#FB7E00;}
</style>
<g>
	<g>
		<rect x="6" y="26.8" class="st0" width="14.6" height="40.4"/>
		<polygon class="st0" points="38.8,49 38.8,67.2 20.6,67.2 20.6,81.8 38.8,81.8 53.4,81.8 53.4,67.2 53.4,49 		"/>
	</g>
	<path class="st1" d="M14,18.2h-1.4c-4.1,0-7.4-3.3-7.4-7.4V9.4C5.2,5.3,8.5,2,12.6,2H14c4.1,0,7.4,3.3,7.4,7.4v1.4
		C21.4,14.9,18.1,18.2,14,18.2z"/>
	<path class="st2" d="M46.8,40.3h-1.4c-4.1,0-7.4-3.3-7.4-7.4v-1.4c0-4.1,3.3-7.4,7.4-7.4h1.4c4.1,0,7.4,3.3,7.4,7.4v1.4
		C54.1,37,50.8,40.3,46.8,40.3z"/>
</g>
<g>
</g>
<g>
</g>
<g>
</g>
<g>
</g>
<g>
</g>
<g>
</g>
<g>
</g>
<g>
</g>
<g>
</g>
<g>
</g>
<g>
</g>
<g>
</g>
<g>
</g>
<g>
</g>
<g>
</g>
</svg>
