<?xml version="1.0" encoding="utf-8"?>
<!-- Generator: Adobe Illustrator 24.3.0, SVG Export Plug-In . SVG Version: 6.00 Build 0)  -->
<svg version="1.1" id="Layer_1" xmlns="http://www.w3.org/2000/svg" xmlns:xlink="http://www.w3.org/1999/xlink" x="0px" y="0px"
	 viewBox="0 0 79.7 65.8" style="enable-background:new 0 0 79.7 65.8;" xml:space="preserve">
<style type="text/css">
	.st0{fill:#FFFFFF;}
	.st1{fill:none;stroke:#131D17;stroke-width:3;stroke-linecap:round;stroke-linejoin:round;}
</style>
<path id="Rectangle_46" class="st0" d="M25.8,9.9h28c5,0,9,4,9,9v28c0,5-4,9-9,9h-28c-5,0-9-4-9-9v-28C16.8,13.9,20.9,9.9,25.8,9.9z
	"/>
<g id="Icon_feather-instagram" transform="translate(3.629 3.786)">
	<path id="Path_333" class="st1" d="M27.8,12.9h16c4.4,0,8,3.6,8,8v0v16c0,4.4-3.6,8-8,8l0,0h-16c-4.4,0-8-3.6-8-8l0,0v-16
		C19.8,16.5,23.4,12.9,27.8,12.9z"/>
	<path id="Path_334" class="st1" d="M42.2,27.9c0.5,3.5-1.9,6.7-5.4,7.2c-3.5,0.5-6.7-1.9-7.2-5.4s1.9-6.7,5.4-7.2
		c0.6-0.1,1.2-0.1,1.9,0C39.6,22.9,41.8,25.1,42.2,27.9L42.2,27.9z"/>
	<path id="Path_335" class="st1" d="M44.6,20.1L44.6,20.1"/>
</g>
</svg>
