<?xml version="1.0" encoding="utf-8"?>
<!-- Generator: Adobe Illustrator 24.3.0, SVG Export Plug-In . SVG Version: 6.00 Build 0)  -->
<svg version="1.1" id="Layer_1" xmlns="http://www.w3.org/2000/svg" xmlns:xlink="http://www.w3.org/1999/xlink" x="0px" y="0px"
	 viewBox="0 0 79.7 65.8" style="enable-background:new 0 0 79.7 65.8;" xml:space="preserve">
<style type="text/css">
	.st0{fill:#FFFFFF;}
	.st1{fill:#203026;}
</style>
<g id="Group_364" transform="translate(-797 -5029)">
	<path id="Rectangle_1598" class="st0" d="M822.9,5038.9h28c5,0,9,4,9,9v28c0,5-4,9-9,9h-28c-5,0-9-4-9-9v-28
		C813.9,5042.9,817.9,5038.9,822.9,5038.9z"/>
	<path id="Icon_awesome-linkedin-in" class="st1" d="M829,5075.5h-6v-19.2h6V5075.5z M826,5053.7c-1.9,0-3.5-1.5-3.5-3.5
		c0-1.9,1.5-3.5,3.5-3.5s3.5,1.5,3.5,3.5C829.5,5052.1,827.9,5053.6,826,5053.7z M851.3,5075.5h-6v-9.3c0-2.2,0-5.1-3.1-5.1
		c-3.1,0-3.6,2.4-3.6,4.9v9.5h-6v-19.2h5.7v2.6h0.1c1.2-2,3.3-3.2,5.6-3.1c6,0,7.1,4,7.1,9.1L851.3,5075.5L851.3,5075.5z"/>
</g>
<g>
</g>
<g>
</g>
<g>
</g>
<g>
</g>
<g>
</g>
<g>
</g>
<g>
</g>
<g>
</g>
<g>
</g>
<g>
</g>
<g>
</g>
<g>
</g>
<g>
</g>
<g>
</g>
<g>
</g>
</svg>
