<?xml version="1.0" encoding="utf-8"?>
<!-- Generator: Adobe Illustrator 24.3.0, SVG Export Plug-In . SVG Version: 6.00 Build 0)  -->
<svg version="1.1" id="Layer_1" xmlns="http://www.w3.org/2000/svg" xmlns:xlink="http://www.w3.org/1999/xlink" x="0px" y="0px"
	 viewBox="0 0 79.7 65.8" style="enable-background:new 0 0 79.7 65.8;" xml:space="preserve">
<style type="text/css">
	.st0{fill:#FFFFFF;}
	.st1{fill:#202F25;}
</style>
<g id="Group_363" transform="translate(-890.725 -5029)">
	<path id="Rectangle_1597" class="st0" d="M916,5036.4h28c5,0,9,4,9,9v28c0,5-4,9-9,9h-28c-5,0-9-4-9-9v-28
		C907,5040.4,911,5036.4,916,5036.4z"/>
	<g id="Icon_ionic-ios-mail" transform="translate(893.55 5032.5)">
		<path id="Path_340" class="st1" d="M53.2,18.1l-8.8,8.9c-0.1,0.1-0.1,0.2,0,0.2c0,0,0,0,0,0l6.1,6.5c0.4,0.4,0.4,1.1,0,1.5
			c0,0,0,0,0,0c-0.4,0.4-1.1,0.4-1.5,0L43,28.8c-0.1-0.1-0.2-0.1-0.2,0l-1.5,1.5c-1.2,1.3-2.9,2-4.7,2c-1.8,0-3.5-0.7-4.8-2
			l-1.4-1.5c-0.1-0.1-0.2-0.1-0.2,0L24,35.3c-0.4,0.4-1.1,0.4-1.5,0c-0.4-0.4-0.4-1.1,0-1.5c0,0,0,0,0,0l6.1-6.5
			c0.1-0.1,0.1-0.2,0-0.2l-8.8-8.9c-0.1-0.1-0.2-0.1-0.2,0c0,0-0.1,0.1-0.1,0.1v17.9c0,1.4,1.2,2.6,2.6,2.6h28.7
			c1.4,0,2.6-1.2,2.6-2.6V18.2c0-0.1-0.1-0.2-0.2-0.2C53.3,18.1,53.2,18.1,53.2,18.1z"/>
		<path id="Path_341" class="st1" d="M36.5,30.2c1.2,0,2.3-0.5,3.2-1.3l12.8-13c-0.5-0.4-1-0.6-1.6-0.6H22.2c-0.6,0-1.2,0.2-1.6,0.6
			l12.8,13C34.2,29.7,35.4,30.2,36.5,30.2z"/>
	</g>
</g>
<g>
</g>
<g>
</g>
<g>
</g>
<g>
</g>
<g>
</g>
<g>
</g>
<g>
</g>
<g>
</g>
<g>
</g>
<g>
</g>
<g>
</g>
<g>
</g>
<g>
</g>
<g>
</g>
<g>
</g>
</svg>
